<svg xmlns="http://www.w3.org/2000/svg" viewBox="0 0 31.02 39.05"><defs><style>.cls-1{fill:none;stroke:#fff;stroke-linecap:round;stroke-linejoin:round;stroke-width:2px;}</style></defs><g id="Layer_2" data-name="Layer 2"><g id="Layer_1-2" data-name="Layer 1"><path class="cls-1" d="M28.48,25.07c-2.56-2.57-3.24-4.7-3.24-6.49V13.71C25.24,7.63,21.53.61,15,1,9.7,1.34,5.78,6.07,5.78,11.35v7.23c0,1.79-.68,3.92-3.24,6.49C.89,26.72.92,28.38,1.06,31.63a1.62,1.62,0,0,0,1.61,1.55H28.35A1.62,1.62,0,0,0,30,31.63C30.1,28.38,30.13,26.72,28.48,25.07Z"/><path class="cls-1" d="M15.51,38.05h0a3.26,3.26,0,0,1-3.25-3.25V33.18h6.49V34.8A3.25,3.25,0,0,1,15.51,38.05Z"/></g></g></svg>