<svg xmlns="http://www.w3.org/2000/svg" viewBox="0 0 32.82 39.31"><defs><style>.cls-1{fill:none;stroke:#fff;stroke-linecap:round;stroke-linejoin:round;stroke-width:2px;}</style></defs><g id="Layer_2" data-name="Layer 2"><g id="Layer_1-2" data-name="Layer 1"><g id="bin"><line class="cls-1" x1="1" y1="5.87" x2="31.82" y2="5.87"/><path class="cls-1" d="M12.23,1h8.36A2.31,2.31,0,0,1,22.9,3.31V5.87a0,0,0,0,1,0,0h-13a0,0,0,0,1,0,0V3.31A2.31,2.31,0,0,1,12.23,1Z"/><line class="cls-1" x1="16.41" y1="12.36" x2="16.41" y2="31.82"/><line class="cls-1" x1="9.92" y1="12.36" x2="9.92" y2="31.82"/><line class="cls-1" x1="22.9" y1="12.36" x2="22.9" y2="31.82"/><path class="cls-1" d="M23.14,38.31H9.68a4.87,4.87,0,0,1-4.86-4.62L3.43,5.87h26L28,33.69A4.87,4.87,0,0,1,23.14,38.31Z"/></g></g></g></svg>