<svg xmlns="http://www.w3.org/2000/svg" viewBox="0 0 31.82 38.31"><defs><style>.cls-1{fill:none;stroke:#1b1464;stroke-linecap:round;stroke-linejoin:round;}</style></defs><g id="Layer_2" data-name="Layer 2"><g id="Layer_1-2" data-name="Layer 1"><g id="bin"><line class="cls-1" x1="0.5" y1="5.37" x2="31.32" y2="5.37"/><path class="cls-1" d="M11.73.5h8.36A2.31,2.31,0,0,1,22.4,2.81V5.37a0,0,0,0,1,0,0h-13a0,0,0,0,1,0,0V2.81A2.31,2.31,0,0,1,11.73.5Z"/><line class="cls-1" x1="15.91" y1="11.86" x2="15.91" y2="31.32"/><line class="cls-1" x1="9.42" y1="11.86" x2="9.42" y2="31.32"/><line class="cls-1" x1="22.4" y1="11.86" x2="22.4" y2="31.32"/><path class="cls-1" d="M22.64,37.81H9.18a4.87,4.87,0,0,1-4.86-4.62L2.93,5.37h26L27.5,33.19A4.87,4.87,0,0,1,22.64,37.81Z"/></g></g></g></svg>