<svg xmlns="http://www.w3.org/2000/svg" viewBox="0 0 39.31 37.69"><defs><style>.cls-1{fill:none;stroke:#fff;stroke-linecap:round;stroke-linejoin:round;stroke-width:2px;}</style></defs><g id="Layer_2" data-name="Layer 2"><g id="Layer_1-2" data-name="Layer 1"><path class="cls-1" d="M31.82,4.24h6.49V35.07a1.63,1.63,0,0,1-1.62,1.62H2.62A1.63,1.63,0,0,1,1,35.07V4.24H7.49"/><line class="cls-1" x1="11.75" y1="4.24" x2="27.97" y2="4.24"/><path class="cls-1" d="M9.11,1h0a1.62,1.62,0,0,1,1.62,1.62V5.87A1.62,1.62,0,0,1,9.11,7.49h0A1.62,1.62,0,0,1,7.49,5.87V2.62A1.62,1.62,0,0,1,9.11,1Z"/><path class="cls-1" d="M30.2,1h0a1.62,1.62,0,0,1,1.62,1.62V5.87A1.62,1.62,0,0,1,30.2,7.49h0a1.62,1.62,0,0,1-1.62-1.62V2.62A1.62,1.62,0,0,1,30.2,1Z"/><line class="cls-1" x1="2.01" y1="13.98" x2="37.7" y2="13.98"/></g></g></svg>