<svg xmlns="http://www.w3.org/2000/svg" viewBox="0 0 34.18 37.69"><defs><style>.cls-1{fill:none;stroke:#fff;stroke-linecap:round;stroke-linejoin:round;stroke-width:2px;}</style></defs><g id="Layer_2" data-name="Layer 2"><g id="Layer_1-2" data-name="Layer 1"><path class="cls-1" d="M2.62,14H31.56a1.62,1.62,0,0,1,1.62,1.74L31.69,35.07a1.62,1.62,0,0,1-1.62,1.62h-26a1.63,1.63,0,0,1-1.62-1.62L1,15.72A1.62,1.62,0,0,1,2.62,14Z"/><line class="cls-1" x1="5.74" y1="7.49" x2="28.45" y2="7.49"/><line class="cls-1" x1="10.6" y1="1" x2="23.58" y2="1"/><path class="cls-1" d="M23.58,22.09v1.62A1.62,1.62,0,0,1,22,25.33H12.23a1.62,1.62,0,0,1-1.63-1.62V22.09"/></g></g></svg>