<svg xmlns="http://www.w3.org/2000/svg" viewBox="0 0 39.31 39.31"><defs><style>.cls-1{fill:none;stroke:#fff;stroke-linecap:round;stroke-linejoin:round;stroke-width:2px;}</style></defs><g id="Layer_2" data-name="Layer 2"><g id="Layer_1-2" data-name="Layer 1"><path class="cls-1" d="M7.61,13,4.74,8.18,8.18,4.74,13,7.61h0A12.59,12.59,0,0,1,15.88,6.4L17.22,1h4.87l1.34,5.4a12.59,12.59,0,0,1,2.92,1.22h0l4.78-2.87,3.44,3.44L31.7,13h0a12.59,12.59,0,0,1,1.22,2.92l5.4,1.34v4.87l-5.4,1.34a12.59,12.59,0,0,1-1.22,2.92h0l2.87,4.78-3.44,3.44L26.35,31.7h0a12.59,12.59,0,0,1-2.92,1.22l-1.34,5.4H17.22l-1.34-5.4A12.59,12.59,0,0,1,13,31.69h0L8.18,34.57,4.74,31.13l2.87-4.78h0A12.59,12.59,0,0,1,6.4,23.43L1,22.09V17.22l5.4-1.34A12.59,12.59,0,0,1,7.62,13Z"/><circle class="cls-1" cx="19.66" cy="19.66" r="7.3"/></g></g></svg>