<svg xmlns="http://www.w3.org/2000/svg" viewBox="0 0 24.71 39.31"><defs><style>.cls-1{fill:none;stroke:#fff;stroke-linecap:round;stroke-linejoin:round;stroke-width:2px;}</style></defs><g id="Layer_2" data-name="Layer 2"><g id="Layer_1-2" data-name="Layer 1"><line class="cls-1" x1="9.11" y1="35.07" x2="15.6" y2="35.07"/><line class="cls-1" x1="9.11" y1="38.31" x2="15.6" y2="38.31"/><path class="cls-1" d="M23.71,12.36A11.36,11.36,0,0,0,12.16,1,11.5,11.5,0,0,0,1,11.94a11.3,11.3,0,0,0,4.61,9.54,4.75,4.75,0,0,1,1.87,3.83v4.48c0,1.31.72,2,1.62,2H15.6a1.61,1.61,0,0,0,1.62-1.62V25.31a4.69,4.69,0,0,1,1.83-3.8A11.31,11.31,0,0,0,23.71,12.36Z"/><line class="cls-1" x1="12.36" y1="17.22" x2="12.36" y2="31.82"/><line class="cls-1" x1="9.11" y1="13.98" x2="12.36" y2="17.22"/><line class="cls-1" x1="15.6" y1="13.98" x2="12.36" y2="17.22"/></g></g></svg>