<svg xmlns="http://www.w3.org/2000/svg" viewBox="0 0 39.31 39.31"><defs><style>.cls-1{fill:none;stroke:#fff;stroke-linecap:round;stroke-linejoin:round;stroke-width:2px;}</style></defs><g id="Layer_2" data-name="Layer 2"><g id="Layer_1-2" data-name="Layer 1"><path class="cls-1" d="M1,25.33h9.94a1.68,1.68,0,0,1,1.59,1.3,4.87,4.87,0,0,0,4.69,3.57h4.87a4.87,4.87,0,0,0,4.69-3.57,1.68,1.68,0,0,1,1.59-1.3h9.94"/><polyline class="cls-1" points="7.49 20.47 7.49 1 26.91 1 31.82 5.97 31.82 20.47"/><line class="cls-1" x1="14.79" y1="9.92" x2="24.52" y2="9.92"/><line class="cls-1" x1="14.79" y1="16.41" x2="24.52" y2="16.41"/><path class="cls-1" d="M36.69,10.73l1.62,14.6v9.74a3.24,3.24,0,0,1-3.24,3.24H4.24A3.24,3.24,0,0,1,1,35.07V25.33l1.62-14.6"/></g></g></svg>