<svg xmlns="http://www.w3.org/2000/svg" viewBox="0 0 29.58 39.31"><defs><style>.cls-1,.cls-2{fill:none;stroke:#fff;stroke-linecap:round;stroke-width:2px;}.cls-1{stroke-miterlimit:10;}.cls-2{stroke-linejoin:round;}</style></defs><g id="Layer_2" data-name="Layer 2"><g id="Layer_1-2" data-name="Layer 1"><g id="point_hand"><path class="cls-1" d="M18.84,20.47V12.36A3.25,3.25,0,0,0,15.6,9.11H14V20.47"/><path class="cls-1" d="M23.71,15.6a3.25,3.25,0,0,0-3.24-3.24H18.84"/><path class="cls-1" d="M28.58,23.71V18.84a3.25,3.25,0,0,0-3.25-3.24H23.71v4.87"/><path class="cls-2" d="M28.58,23.71c0,6.49-3.25,8.11-3.25,14.6H7.49V36.69C7.49,30.2,1,27,1,23.71V12.36a1.63,1.63,0,0,1,1.62-1.63h0A3.26,3.26,0,0,1,5.87,14v4.86a1.62,1.62,0,0,0,1.62,1.63h0a1.63,1.63,0,0,0,1.62-1.63V3.43a2.44,2.44,0,0,1,4.87,0V9.11"/></g></g></g></svg>