<svg xmlns="http://www.w3.org/2000/svg" viewBox="0 0 30.58 40.31"><defs><style>.cls-1,.cls-2{fill:none;stroke:#fff;stroke-linecap:round;stroke-width:3px;}.cls-1{stroke-miterlimit:10;}.cls-2{stroke-linejoin:round;}</style></defs><g id="Layer_2" data-name="Layer 2"><g id="Layer_1-2" data-name="Layer 1"><g id="point_hand"><path class="cls-1" d="M19.34,21V12.86A3.25,3.25,0,0,0,16.1,9.61H14.48V21"/><path class="cls-1" d="M24.21,16.1A3.25,3.25,0,0,0,21,12.86H19.34"/><path class="cls-1" d="M29.08,24.21V19.34a3.25,3.25,0,0,0-3.25-3.24H24.21V21"/><path class="cls-2" d="M29.08,24.21c0,6.49-3.25,8.11-3.25,14.6H8V37.19c0-6.49-6.49-9.74-6.49-13V12.86a1.63,1.63,0,0,1,1.62-1.63h0a3.26,3.26,0,0,1,3.25,3.25v4.86A1.62,1.62,0,0,0,8,21H8a1.63,1.63,0,0,0,1.62-1.63V3.93a2.44,2.44,0,0,1,4.87,0V9.61"/></g></g></g></svg>