<svg xmlns="http://www.w3.org/2000/svg" viewBox="0 0 35.89 36.14"><defs><style>.cls-1{fill:none;stroke:#1b1464;stroke-linecap:round;stroke-linejoin:round;}</style></defs><g id="Layer_2" data-name="Layer 2"><g id="Layer_1-2" data-name="Layer 1"><path class="cls-1" d="M6.26,26.47a8.35,8.35,0,0,0-3.37,2.07A8.24,8.24,0,0,0,.82,31.91a6.63,6.63,0,0,0-.14,3.55,6.5,6.5,0,0,0,3.54-.15A8.25,8.25,0,0,0,7.6,33.25a8.18,8.18,0,0,0,2.06-3.38"/><path class="cls-1" d="M6.42,16,1.83,20.55H6.42a15.48,15.48,0,0,1,9.17,9.17v4.59l4.59-4.59-2.29-6.88c5.55-.39,10.29-2.37,13.76-6.88A19.17,19.17,0,0,0,35.09,1.05C29.4-.27,24.39.76,20.18,4.49q-6.12,6.39-6.88,13.76Z"/><circle class="cls-1" cx="27.06" cy="9.07" r="3.24"/></g></g></svg>