<svg xmlns="http://www.w3.org/2000/svg" viewBox="0 0 38.31 38.31"><defs><style>.cls-1{fill:none;stroke:#1b1464;stroke-linecap:round;stroke-linejoin:round;}</style></defs><g id="Layer_2" data-name="Layer 2"><g id="Layer_1-2" data-name="Layer 1"><path class="cls-1" d="M.5,24.83h9.94A1.68,1.68,0,0,1,12,26.13a4.87,4.87,0,0,0,4.69,3.57h4.87a4.87,4.87,0,0,0,4.69-3.57,1.68,1.68,0,0,1,1.59-1.3h9.94"/><polyline class="cls-1" points="6.99 19.97 6.99 0.5 26.41 0.5 31.32 5.47 31.32 19.97"/><line class="cls-1" x1="14.29" y1="9.42" x2="24.02" y2="9.42"/><line class="cls-1" x1="14.29" y1="15.91" x2="24.02" y2="15.91"/><path class="cls-1" d="M36.19,10.23l1.62,14.6v9.74a3.24,3.24,0,0,1-3.24,3.24H3.74A3.24,3.24,0,0,1,.5,34.57V24.83l1.62-14.6"/></g></g></svg>