<svg xmlns="http://www.w3.org/2000/svg" viewBox="0 0 36.89 37.14"><defs><style>.cls-1{fill:none;stroke:#fff;stroke-linecap:round;stroke-linejoin:round;stroke-width:2px;}</style></defs><g id="Layer_2" data-name="Layer 2"><g id="Layer_1-2" data-name="Layer 1"><path class="cls-1" d="M6.76,27A8.35,8.35,0,0,0,3.39,29a8.24,8.24,0,0,0-2.07,3.37A6.63,6.63,0,0,0,1.18,36a6.5,6.5,0,0,0,3.54-.15A8.25,8.25,0,0,0,8.1,33.75a8.18,8.18,0,0,0,2.06-3.38"/><path class="cls-1" d="M6.92,16.46,2.33,21.05H6.92a15.48,15.48,0,0,1,9.17,9.17v4.59l4.59-4.59-2.29-6.88C23.94,23,28.68,21,32.15,16.46A19.17,19.17,0,0,0,35.59,1.55C29.9.23,24.89,1.26,20.68,5q-6.12,6.39-6.88,13.76Z"/><circle class="cls-1" cx="27.56" cy="9.57" r="3.24"/></g></g></svg>