<svg xmlns="http://www.w3.org/2000/svg" viewBox="0 0 39.31 39.31"><defs><style>.cls-1{fill:none;stroke:#fff;stroke-linecap:round;stroke-linejoin:round;stroke-width:2px;}</style></defs><g id="Layer_2" data-name="Layer 2"><g id="Layer_1-2" data-name="Layer 1"><path class="cls-1" d="M38.31,36.69V9.11L30.2,1H2.62A1.63,1.63,0,0,0,1,2.62V36.69a1.63,1.63,0,0,0,1.62,1.62H36.69A1.63,1.63,0,0,0,38.31,36.69Z"/><path class="cls-1" d="M7.49,23.71H31.82a0,0,0,0,1,0,0V37.27a1,1,0,0,1-1,1H8.49a1,1,0,0,1-1-1V23.71A0,0,0,0,1,7.49,23.71Z" transform="translate(39.31 62.02) rotate(180)"/><path class="cls-1" d="M10.73,1h13a0,0,0,0,1,0,0V11.36a1,1,0,0,1-1,1h-11a1,1,0,0,1-1-1V1A0,0,0,0,1,10.73,1Z"/></g></g></svg>