<svg xmlns="http://www.w3.org/2000/svg" viewBox="0 0 36.46 39.27"><defs><style>.cls-1{fill:none;stroke:#fff;stroke-linecap:round;stroke-linejoin:round;stroke-width:2px;}</style></defs><g id="Layer_2" data-name="Layer 2"><g id="Layer_1-2" data-name="Layer 1"><path class="cls-1" d="M34.8,23.87a1.63,1.63,0,0,1,0,2.62L19.19,38a1.62,1.62,0,0,1-1.92,0L1.66,26.49a1.63,1.63,0,0,1,0-2.62"/><path class="cls-1" d="M1.66,18.33a1.62,1.62,0,0,0,0,2.61l1.53,1.13L17.27,32.41a1.62,1.62,0,0,0,1.92,0L33.27,22.07l1.53-1.13a1.62,1.62,0,0,0,0-2.61"/><path class="cls-1" d="M34.8,12.78,19.19,1.31a1.65,1.65,0,0,0-1.92,0L1.66,12.78a1.63,1.63,0,0,0,0,2.62l1.53,1.12L6.5,19l10.77,7.9a1.62,1.62,0,0,0,1.92,0L30,19l3.31-2.44L34.8,15.4A1.63,1.63,0,0,0,34.8,12.78Z"/></g></g></svg>