<svg xmlns="http://www.w3.org/2000/svg" viewBox="0 0 39.31 29.58"><defs><style>.cls-1{fill:none;stroke:#fff;stroke-linecap:round;stroke-linejoin:round;stroke-width:2px;}</style></defs><g id="Layer_2" data-name="Layer 2"><g id="Layer_1-2" data-name="Layer 1"><line class="cls-1" x1="33.44" y1="1" x2="38.31" y2="5.87"/><line class="cls-1" x1="33.44" y1="10.73" x2="38.31" y2="5.87"/><line class="cls-1" x1="33.44" y1="18.84" x2="38.31" y2="23.71"/><line class="cls-1" x1="33.44" y1="28.58" x2="38.31" y2="23.71"/><path class="cls-1" d="M38.31,23.71h-7a6.45,6.45,0,0,1-4.58-1.9l-14-14a6.45,6.45,0,0,0-4.58-1.9H1"/><path class="cls-1" d="M1,23.71H8a6.49,6.49,0,0,0,4.59-1.9l4.74-4.72"/><path class="cls-1" d="M22,12.5l4.72-4.74a6.52,6.52,0,0,1,4.59-1.89h7"/></g></g></svg>