<svg xmlns="http://www.w3.org/2000/svg" viewBox="0 0 27.95 39.31"><defs><style>.cls-1{fill:none;stroke:#fff;stroke-linecap:round;stroke-linejoin:round;stroke-width:2px;}</style></defs><g id="Layer_2" data-name="Layer 2"><g id="Layer_1-2" data-name="Layer 1"><path class="cls-1" d="M2.62,10.73H25.33a0,0,0,0,1,0,0V36.31a2,2,0,0,1-2,2H4.62a2,2,0,0,1-2-2V10.73A0,0,0,0,1,2.62,10.73Z"/><path class="cls-1" d="M2,5.87H26a1,1,0,0,1,1,1v3.87a0,0,0,0,1,0,0H1a0,0,0,0,1,0,0V6.87A1,1,0,0,1,2,5.87Z"/><path class="cls-1" d="M8.49,1h11a1,1,0,0,1,1,1V5.87a0,0,0,0,1,0,0h-13a0,0,0,0,1,0,0V2A1,1,0,0,1,8.49,1Z"/><line class="cls-1" x1="9.11" y1="15.6" x2="9.11" y2="31.82"/><line class="cls-1" x1="13.98" y1="15.6" x2="13.98" y2="31.82"/><line class="cls-1" x1="18.84" y1="15.6" x2="18.84" y2="31.82"/></g></g></svg>